<mxfile host="app.diagrams.net" modified="2024-05-16T08:55:17.180Z" agent="Mozilla/5.0 (Windows NT 10.0; Win64; x64) AppleWebKit/537.36 (KHTML, like Gecko) Chrome/124.0.0.0 Safari/537.36" etag="DvPZ2PixJYDPXx9c1beX" version="24.0.0" type="device">
  <diagram name="Page-1" id="FmXCKLO-LZeBLhNWCPCd">
    <mxGraphModel dx="2074" dy="1132" grid="1" gridSize="10" guides="1" tooltips="1" connect="1" arrows="1" fold="1" page="1" pageScale="1" pageWidth="850" pageHeight="1100" math="0" shadow="0">
      <root>
        <mxCell id="0" />
        <mxCell id="1" parent="0" />
        <mxCell id="Wyes8RcjERkSvGoP2RtP-49" value="" style="rounded=0;whiteSpace=wrap;html=1;dashed=1;fillColor=none;" vertex="1" parent="1">
          <mxGeometry x="210" y="270" width="350" height="400" as="geometry" />
        </mxCell>
        <mxCell id="Wyes8RcjERkSvGoP2RtP-6" style="edgeStyle=orthogonalEdgeStyle;rounded=0;orthogonalLoop=1;jettySize=auto;html=1;" edge="1" parent="1" source="Wyes8RcjERkSvGoP2RtP-2" target="Wyes8RcjERkSvGoP2RtP-3">
          <mxGeometry relative="1" as="geometry" />
        </mxCell>
        <mxCell id="Wyes8RcjERkSvGoP2RtP-2" value="Developer" style="points=[[0.35,0,0],[0.98,0.51,0],[1,0.71,0],[0.67,1,0],[0,0.795,0],[0,0.65,0]];verticalLabelPosition=bottom;sketch=0;html=1;verticalAlign=top;aspect=fixed;align=center;pointerEvents=1;shape=mxgraph.cisco19.user;fillColor=#005073;strokeColor=none;" vertex="1" parent="1">
          <mxGeometry x="30" y="450" width="50" height="50" as="geometry" />
        </mxCell>
        <mxCell id="Wyes8RcjERkSvGoP2RtP-26" style="edgeStyle=orthogonalEdgeStyle;rounded=0;orthogonalLoop=1;jettySize=auto;html=1;" edge="1" parent="1" source="Wyes8RcjERkSvGoP2RtP-2" target="Wyes8RcjERkSvGoP2RtP-25">
          <mxGeometry relative="1" as="geometry" />
        </mxCell>
        <mxCell id="Wyes8RcjERkSvGoP2RtP-19" value="" style="group" vertex="1" connectable="0" parent="1">
          <mxGeometry x="240" y="330" width="290" height="290" as="geometry" />
        </mxCell>
        <mxCell id="Wyes8RcjERkSvGoP2RtP-8" value="" style="whiteSpace=wrap;html=1;aspect=fixed;" vertex="1" parent="Wyes8RcjERkSvGoP2RtP-19">
          <mxGeometry width="290" height="290" as="geometry" />
        </mxCell>
        <mxCell id="Wyes8RcjERkSvGoP2RtP-7" value="Azure VM" style="verticalLabelPosition=bottom;html=1;verticalAlign=top;align=center;strokeColor=none;fillColor=#00BEF2;shape=mxgraph.azure.virtual_machine_feature;pointerEvents=1;" vertex="1" parent="Wyes8RcjERkSvGoP2RtP-19">
          <mxGeometry x="4" y="3" width="50" height="40" as="geometry" />
        </mxCell>
        <mxCell id="Wyes8RcjERkSvGoP2RtP-15" value="" style="group" vertex="1" connectable="0" parent="Wyes8RcjERkSvGoP2RtP-19">
          <mxGeometry x="77.5" y="50" width="135" height="91" as="geometry" />
        </mxCell>
        <mxCell id="Wyes8RcjERkSvGoP2RtP-9" value="Server" style="rounded=0;whiteSpace=wrap;html=1;" vertex="1" parent="Wyes8RcjERkSvGoP2RtP-15">
          <mxGeometry y="11" width="135" height="80" as="geometry" />
        </mxCell>
        <mxCell id="Wyes8RcjERkSvGoP2RtP-11" value="" style="shape=image;verticalLabelPosition=bottom;labelBackgroundColor=default;verticalAlign=top;aspect=fixed;imageAspect=0;image=data:image/png,iVBORw0KGgoAAAANSUhEUgAAAcsAAAHLCAYAAACnArNHAABEbklEQVR4nOzdC7xUV3k3/t+z9t4zc7iGO4Rwh9zIHZKQaK0xxppqW3011H9tq9bWJCaQmJpWfdt/j9VaNc0FAt6tttVW0ddWq6+XmovmSkI0akhIgADnQBIuAUKAc2b23ut5P3vPkAAB9uzLnDOH8/u2GEiYvdfMmZnfXmuv9SwDIiIiOiaGJRERUQKGJRERUQKGJRERUQKGJRERUQKGJRERUQKGJRERUQKGJRERUQKGJRERUQKGJRERUQKGJRERUQKGJRERUQKGJRERUQKGJRERUQKGJRERUQKGJRERUQKGJRERUQKGJRERUQKGJRERUQKGJRERUQKGJRERUQKGJRERUQKGJRERUQKGJRERUQKGJRERUQKGJRERUQKGJRERUQKGJRERUQKGJRERUQKGJRERUQKGJRERUQKGJRERUQKGJRERUQKGJRERUQKGJRERUQKGJRERUQKGJRERUQKGJRERUQKGJRERUQKGJRERUQKGJRERUQKGJRERUQKGJRERUQKGJRERUQKGJRERUQKGJRERUQKGJRERUQKGJRERUQKGJRERUQKGJRERUQKGJRERUQKGJRERUQKGJRERUQKGJRERUQKGJRERUQKGJRERUQKGJRERUQKGJRERUQKGJRERUQKGJRERUQKGJRERUQKGJRERUQKGJRERUQKGJRERUQKGJRERUQKGJRERUQKGJRERUQKGJRERUQKGJRERUQKGJRERUQKGJRERUQKGJRERUQKGJRERUQKGJRERUQKGJRERUQKGJRERUQKGJRERUQKGJRERUQKGJRERUQKGJRERUQKGJRERUQKGJRERUQKGJRERUQKGJRERUQKGJRERUQKGJRERUQKGJRERUQKGJRERUQKGJRERUQKGJRERUQKGJRERUQKGJRERUQKGJRERUQKGJRERUQKGJRERUQKGJRERUQKGJRERUQKGJRERUQKGJRERUQKGJRERUQKGJRERUQKGJRERUQKGJRERUQKGJRERUQKGJRERUQKGJRERUQKGJRERUQKGJRERUQKGJRERUQKGJRERUQKGJRERUQKGJRERUQKGJRERUQKGJRERUQKGJRERUQKGJRERUQKGJRERUQKGJRERUQKGJRERUQKGJRERUQKGJRERUQKGJRERUQKGJRERUQKGJRERUQKGJRERUQKGJRERUQKGJRERUQKGJRERUQKGJRERUQKGJRERUQKGJRERUQKGJRERUQKGJRERUQKGJRERUQKGJRERUQKGJRERUQKGJRERUQKGJRERUQKGJRERUQKGJRERUQKGJRERUQKGJRERUQKGJRERUQK3vxtAdFy5ad14lErjIfZsiJwP4FQAs6A6VkSGAeICGv1NVbV7IfIiFFsBPAPIWqj8GnB/DXf/NmyftQWdYvv7KRERIP3dAKIBrVMNRqyfCc97E1RfIyKnQTELrleC2igSEYdj/M8jkcanMPpn9MsAoR89pguQNQp5GBp8C4tn/qpvnxgRHYw9S6Islm8bBvS8Edr1DrHuG2Cc4XA8wIaADRqB1ww90NFs/DOsB6dxp8JxpwrwBu3VTQAYlkT9iGFJlMYt3aPh6h+K7b0axjkTrgsEtUZIhgWdROuBGx9Pq3DsPQUdmIgyYlgSNUNVsKzr7SL6N3C8s+Jh1SjQ/Grrzum60CB4FL17ult3EiJqBsOSKMnStSfh9q6PiZF3wfEk7kn2BccD/Np9uPHsfX1zQiI6GoYl0bHcvvFywLlFvNKpCKros6AUiYLSQmVl35yQiI6FYUl0NEs3XitO6RMAhsPv7dtz12fFvoAw+EXfnpiIjoRhSXS4zk6D0e+5UYz5BNSa4ibupCFQwQbs+drT/XByIjoMw5LoYJ1qMKbr4+K4H4K10j9BCcA4QFi9G52dLEpA1AZY7o7oYKM3/aU43l9BrcRFBfqNAur+vB8bQEQHYc+S6IClm94ujvsxqHVg+zEoo15lUH0ObrC6/xpBRAdjz5IosmTdGRAsgaDcb0OvB0RhCXkK7qxN/dsQIjqAPUuim54bKtK7BF75xJYWGXhJox6smJf/HA+7vlxLVq0+hCul2Zp5RNRiDEuiSu/VcMuva1lQitQLDEShGNaiLAxUtQYb7gSwD9AQIiWIThDI8HptWNzZmsYQURYMSxrcPr12lkA+GOVV4YwDOC5QqwZQ/xdq7SoIHoGYXyPYtwXlob0IhoUYahXBHoOaP1S1sgBB7XxUqw8X3yAiyophSYNbpfwBeOUJhRYdiHqSbhnwe7aptSsQ6r+j1PEbLBq/N+GRLwD4TuMXEbUR7mdJg9eyjeeJNT+HkaGFLRNxXGgYBlD7RVi7BNfPfLKYAxNRf2LPkgYpFWDT1SiVhxbWq/Si3mR1A0K5HtdP/14xByWidsCwpMHp0+tmCiq/3/wmzQnioPQfVNj34PoZa4o5KBG1C66zpMGpw3sr3NL4QtZUumWo3/uA+ng7FjEoiY5HDEsafJauLQNyRSEzYB0XCGpdgP4ZbpiypYjmEVH74TAsDULuuSJmLsKcYSkGsLaqotfgWvYoiY5n7FnS4CN4LbxK/hmwrgfV8Au4duoPimoaEbUnhiUNLivUAcxluSf2OC7U7+2C+p8GRItqHhG1J4YlDS7b158IYF7uiT3GKKz8ExbP2VxU04iofTEsaXDxzYK4/qrm6AyaqFdZ64LUvlFk04iofTEsaXAxzvlwSybe5SMrxwVUV2DxnO1FNo2I2hfDkgaPK1Y4Ijg9rt2alRjAr/UgsN8usmlE1N4YljR4nDN/LNSeDBtkP0a81Zb9BdzwV0U2jYjaG8OSBo/hmAjjTs+1vlItFHI3Fs/pi12iiahNMCxp8BAzF8b1ct2vDAMgxE+KbBYRtT9W8KFBRC7ItSmdcaA23AJTe6LARhVn2YYPi1N5I4K0a0gV8CrQWvVzWDz1P1rUOqIBjWE5eHUAWAhgKIC0pWyiyIm+kb/V2LB4QBDFebkOYFzABg+h/MLuwhpVlBUrHNlqroBbOjfTNrWOB0j15lY0jeh4wLAcvIYBuAnAuIyP7wVw94AJy+UbJsLipFwl7hwHCOVRXDm/oH29CrT1rKkAJqDWi9QTmIwDVKs7APtUq5pHNNDxnuXglqdM28Aq8RaY2YBMhM0YliKAX1UEaM8h2LB8MsRMyLSTShSWFhswsqO7FU0jOh4wLAe3wROWoiej1NGRuWcZhWUY7AXMk0U3rRCuzIXX4WSrTCRQ1SfxpxP3taBlRMcFhiUNDiLn5Mt3iX49j93OugJbVQxVgWI+NOP60XjYVlcV3Syi4wnDko5/V6gDYH687CMrMVDRJ9B54v4im1aILzzbAcj5mZ+fhgrByqKbRXQ8YVjS8e+1G8cJ9NRcO40YBwj14SKbVZh9PbMEGScvGQNVbEGt3H49ZqI2wrCkQcA5qz77N+ctWmPbs8SdY+ZDTDnTY40X/e8vMHzSwJjVTNRPGJZ0/AuD+XBKXuZtuYwB/OoehObpoptWCCPz4ZUl0/NznOg64BFcKe23HIaojTAs6bhnRM6sF0DPegAn6ll2Q/d3FdmuQixdWxaR0zINwdaXw1hAH2tF04iOJwxLOr59as1whZmda6cRiT8mm3DD3J0FtqwgHeOgenK2yT0C2OBFwF/TgoYRHVcYlnR8K3WMA5AxTBqshQK/LLJZhQnDaTDeiZkmL4mBqjyHnTVO7iFKwLCk45src+B4I3KVuYsfa9pzHaKL+TAZd7M2BhD7S3TOrRXeLqLjDMOSjm82mJ9rpxHElXtq6PFXF9eoIumFmQqn48C9WDxUcIOIjksMSzq+iXN+5jBBY7aoYD08s73IZhXilvs7RDE325KY6CLAD2Hk0Ra0jOi4w7Ck49cH7u8QwazMS0bQ2LoKeBwfmNF+23I542cBmJypOHy8g0rwDPb3bmxF04iON9yii/rfLd0dcMJzYYIKrFtMgXZRC8VMQKfkqtyjClUJsfTp34Ka4j8v0RFDE2B4+DDeM6M35YPnwC2NQZhhiaRxoEGwESP2bk7/YKLBh2FJ/c/DbIF8C1IeBWML2s1Eov93AJRzTe7xeyGCtwDOmyD57n4emSOKcB2AC9I/Vs+Ke75ZwjLqbRt9rC335iRqQwxL6n/qT4JxJ0FEir0zoMg1BHuASAmIfrWAWwLCnkdS9yo7Ow1ELoTNmHVxb1tZPJ2oSQxL6n/qTIDXIai134YesThwW7R9Z3RsG96R+nGVPxkuIucgzLK+UqJzhvCD9lwOQ9SGOMGH+p/Rqa0Y4Gx79Zqzu1Dyfp36sWU9A9DRmUK8vmRkIyqlZ9I/mGhwYlhS/7OYkWsSzkAVzxfS9egInkr9WNe5AMYtZ+rwRucVPI6xK/dkeDTRoMSwpP7VeZcLwfRMyx8GOgXU6kPpZ8FGnXFzTny/M0taSjz6+xgWLhyEVyhE2TAsqZ9NdyEyPdeM1YEqes6KO1M/bvnqYSp6SrZ6sALUqgHatdYtUZtiWFL/6qiOFmBsIbNWBxIxgA12Q/WR1I+1Q8dBzSmZisNL3K3cAygn9xClwLCk/lVxp8drIVs127RduV6UXI/CCZ5N/2BzMlz3hGx7WBoodBOen7Yp/YOJBi+GJfUvcaYBaM0axnYmAoX9JRbPqaZ+rOqF2c/rRI9/GJ0yCMe9ibJjWFL/EjMNjmcG1TDsS/cN9efZHq8XIOOuXPGyEeM8mO3BRIMXw5L6lYFMaxQrHzzioVC7E9Xyvakf+5lNo0QxO9PFhRjA7+2BmifSP5hocGMFH+o/qqLLuybHi/PrC+WLUcSazShYsvbekrgloBaswgdPfD71Y0OZBeiJ0AzPMXqdw2ALQuX9SqKUGJbUfz4K0VF6K2q9X4eG+cdhNf6/0QL9KBx3QubQjMIsqP1crXM7TM0ABQZ5xPoGoX080yJJ9U9Badhw+KmXZtZ3GgmDDbh+2nP4QPqHEw1m7RaWwwCMBjAHwCwAEwGMrM+WRA3AiwC2AYiujJ8EsB1AX+8zWGm0aQqA2QBObLR5aLx/BtADYH+jnRsBrG38vv32Q+xv9UkmdxV6zNu7zwTCjuz3QOu9SVX9Hyw+6duFtq0I4szLvJl1vfDDIxBpqxvEr71rQ6XsDBtVLTmzXBuebqEzxJjoczVSgQ6pP2ELQU0VL4iGWyHOBmvcNV7PvqdwgrPzJ2dP3Nffz4OOb+0QllHwvArAaxq/zmwET9I3QhSeTwH4OYB7G1+6z7WojUMALADw6kZbz2sEZDP3fGuNwHwAwM8abeWGu62i9hSUOkbATz/JNBa964KaD9XfFN203Do7DRQXwGZYX4lGEQSrDxXdrCze8OPnhtrR7kXqh78lxlkQAPMd0VFwXTGOgYjTGAbXev/74G8Da6E2hLEhglJpr/SYR1+/ctt9FmalX/Xvvec1k7b341Oj49SxwvLLGY/pAPgpgK8l/L25AP4YwBUApiP9WFcJwBmNX+8H8CyA7wD4KoCiFlxHvds/bLRzVsYlDqXGc41+/TmAHQB+DOCfG+HJkmNFEjmn/ps8PUu7Dyi3X4WbIe8aLyKnZhtejnca6YH46Yu2F+iSB5+ZZ6S0MFS8BVZmOEOHexoGgB9A1UI1jO85K5rbekyMGWZc79Xidrxae3tQKnlbLl35/E9Vg38f6o6/97/nS/9uZXN714kQ/E1jRCrbm9K4DoLef8fimT8pvH1Hs3Tt6XAqfwm1PqwGEKOAbYz9i1//Adno91WI1H9wKrX6f0YvPC+66FyLRdPTV6jK6jObRiHE3wFmCDSsNV7vKiT6Z6PN0e/FVqFGIVpDKCFMPGpRRagW4b7v4Ia5O490+GOF5Z/laHbtGGE5A8AHASwEMDbHOQ43CcA1AP4UwDcA/COADRmPNaYRwO8DcFKBbUTjOb+z8fyj0PwHAJzKXxTFvFwTfIyBhuEmTJq0pchmFaIi8wAdkek713UBv/YUMLrPe11XrFjhPD/5ty+F414pIpc5pfJwG/hx7zDsyZllqrB+LXpucU9UHGeyuN67bFXf1RPsXHnp/Tu/UjL6Hz9cMKZ/isa7tUAC793wOjoyTcqKeBVoUIvej30Tlp1qgA0fldKQtyPwX+7GHDLWd4SBPznoN14FCHberZ9fdU+fbTDu2yukMuy6+HVW7wjNPEKbvUakemVg3+5f6sjx3zza4Vs1DHukcSID4GoAH2pBAB1sOIC/APBGILrKwFdSPv4PGgE2t0XtOyD6Mb0ZwGsBLAPwcQC875LH8m3DxPbMzVVn1jhAEDyMhdJ+PX7V8+F1eAgyDDEbF4La47p49IutaNrRXLry+YueV/2QCN5svJLRwEdY7WnNyVSjC534Vxycrnch1F5Ys3r16x7YvvwFb9NXH5nfR1/cB1ScPboXmyX052QePkf8PX9Ckc06prFdl4opvxnVfdk3Tw+jl1nGYV9H9H18xJ5aoW795QkwzqL4vGGGH3HgW7X4B7x33FE/H321zjLqTf1rIxRaGZQHmwLgSwA+2RgCSRKF10cAfLMPgvJgwxoXEN9oDEdTVuHe0wGMylXgIK5wI48W2axCdHYaETM3Xv6RhQ1hYR4D+mZyz6UrN4+59MHtfw/Fj5xy5fcBMbZWhfbV7jKNHqcGAYzjnG1c9wsn2JnfvWzl9vl904CGTRujhOzOvQxJpchRuKP7vHpQ3AjjVHJ9jqKfs+pkOJVhRTbvqMyot4txzsgUlG4JaoN7YPzvH/MUOZrXrBkA/k9j6LGvRc/vrxsh3XGMvzcEwGcaPcpyH7bvYFEv878BnN1P5z8OOGfDOEMz36+MvtD8agBH1xTdstxGvmsEBKdl+jKIixFUawXeyz+m19237TVA5Uem1PG3YmSErfZm76EUIA5Na+GUyperOD+95MFtv9tnJ++8JABsd+aLHNSDH6pjimzWUfV2vUOMcymCWr7jqAWMOQGO0/qQX7p2hAiugslwQRJ95sPAQvS2pNKTrQ7LqKe0ojHLtT+9F8BtRxl27mj0QP+8H9p1uDMAfAvAqf3dkIHIiJ4FryyZv5hN1KsMt8LW2m+2sugEKOYgzLYtlwp2w5j0O5yk9LoHti0y5dL3jFuab2u9fdeTTGBcD2G1tycIg5sc172vT0+u0h2PWGQ/QPRN3frQ+dSa4WLiXmUx5Sej5xzK7CKadkxq3gzXmxffX03L8aA2fADD8KOkv9qqsAwbPbQvA+jbYY+je19j0s7BTONe4f/XT206kjmN1218fzdkQOlUV1VPzrWJdNQDUzyDnbXuIptWDOcsuG4p22bP8fN6AtdObtm9o3mrnhnyuge2LTWOtwRWR8aTbtqBCEy5EvUu16oN33b3ReP/4afzR7/Qp20wkm8YVuOnMRLvW9XaupBDh/wxHPfM3L3KA+pPeVYxBzuKpWvLEOeabGuP4+3qLESWNLMBe6vC0jaGP1/XouNn1XlYeF8DtGUtk4sB3JxhOc3gNXbLSBhzcqZhyoModA0657bJN/1BRC/KVzxdHmzV/cpX3bt9+AlB5ctOubJIVUWLKDdYAHEciHFga7Wvh5DX3XnR+B/2S0NCuzVe95s5MDXqnZZw1sQRBbfsZbc+PknUXl/oMaOLNKNzCj3m4UzpMjHuhZkmT7nx8pYHUfJ+0NSpMjQvSfSBvBRAsS98MUYB+ETj9xcC+Psmih/0lz/qp/u8A1PYOwkqU3ItG4ln0Ur7bYqsKmJwbuar5+gjGaAlQ7CvvWvDCRVX/s2US++wvo9cM5ELZErlqNOw2/rBotGbRr3r7gVjNvdbY6zZARvsz/VVE4WlCUcW2axDuEP+HF7HyZk2FD8qiS7PWjdpsXN1CRaL4LpOpmFjG6qqXYIrT2xq/VIrlo5IH88mTevSxhrShUAfTsdOL7qQ+RsA/7dRyICOReRsmKgbkTMsHfyiyGYVYln3JCimZd3sGX71BRhdV3SzLrpfO4zs+KwpV/4gnsRTNJHo67Y+8Nzsczcmvj+pteojGtob7nzV+GzboBWp7O5AGLwIkSGZ5p5FQSBagtrW9CyXb5kCG7w/76jMK9noZzgWS58fgcUtWOc6ZsglYsylyDLk75agQfVBhM/9d7MPGYxbdEXP+XYAr+/vhjRhTs7iEIOHOvPiYMjKOIDV7YDffjtyaDALYiZnuh9bn4W5GeURTxfZpE5V04Htn3BK5XfYWsbSgoeLiwq48T1GZ8hQiOvCqvWhtqkkjh4rYkJb6/1Cr+9elikov7x9eJamH5PdswOQPfmWj2gZ4ramZxn6i8QrTyxkt56D1d+vY6C7JxR74OgNeJcLmMVwPCf1ffzo56DWIrS34oaLm1702w61YfvDkP5uQArvbxRWYL3LYxAjZ+YOyzBYC3dI+m2zWs45HaWOEmoZqt2IQFXX4spiJ7X8/MEd7zXlyrVxqbqcMyfF9SDGwPq1XhsEGxEGD4i1vxLjbBboTlU5Q4BbYeSow22mVIb1g22hDf/q7ovG/UvqRkS9H7P349LTM0c/v/4duHJWca/XjlN3YWzXnuzvz7g4bgl+UPxI2PIN54jKVZlmkibRRlhad3yjPnZxRk9/VeYlLsaFhv5KjJSme5Voo7Dc3ajturfx53KjkMHENuz9RqG1tbGziGksPZlQcOm+g00D8FYAX2jR8Qe+256eAOjUfJV7ol5J7zpt8v5FnxI5P3OptHq4PFxkc153/7MXiON8EjZ08ywNiUIynpAYBE+qb7+var/Ts7n2ywcWTjnkav+1D2x1nKMsvYhCNjpOUKvda0K94e5XjU3/XG97+iw4+5eKU/7tONB67d8AuDHzEztcp1i9fePWXJMjHFeAoNhe74oVDrbKjfAq2bZ8SxK997xKGdpTfM9S5Bo4bjn9hgnxT0Ghwe14z6xUT7o/w/Kxxv24HzW23NrTqCmrjWo6Qxs1Wi8C8PuN3T6KHyJpziMAftCozbi5Eeq1xivvNdo1uVG67vcAXFDwxKG3NQqvF3n3/TiiUyHmpFzDSGENFtKGO43c5QJ6QebnFl1ASHG1h1+/audI64dLjeuNzjr8GgUcHA/Wr64WkVtr1dr3jrVTiGOcYdBXXjTH9yZVa7ZWW6LDw7+/Y+74vaka0qkGoze9W4z8Ixxv/IEZq+I4i3TJxvtx3fT/zPQEjyz72t0odJwS4PvFDsPuOP/VIs7bClsqciQigNiZhR7ztq7zReTybNV6PKDWuwq9x67Wc8SHpj9bbo81StBFjT3WUMfOuEwU8CiAzwI4v3G1d0UftnUVgE812nqsq5DnGx+G+wDcBODyRgm7BQW144LG3pntV1mmHbjeLLjlIZmvjutVPKJv/vab3DN86kwBpmS6Xxn1kmz4PIxX2BCYBuFip1y5MHNQel7Uk3xRa7232F5/2d2XnJg8eU21cvi6i/qwq78hCIO//tnF47+VuiE3rRuPSvcnxbjvhoi81EOJgsn1yqL2E7p07b1YPKeY2x9W863djZ6+McUNw65QB1s3fgSuW25pWMZl7wotTCAw9iq4Q4bBT1tjOP6cQ41Zir8+NXWN5L4e4vxqY2LN1xOC8kgebmyXdcNBw7WtYhsB/QYA304IysNF77zvNgLziwW1J/qQnFvQsY4/GuZ8beLv4b3oDR4rqEXF8cw8iAzPVIzAcQHRJ+E+W8h92Nfev+NUwFynWaoIRV825QrU91cD4ZvuvGhcZ1NBiXjZRL0EpdZ7paZUgq3WfmT98PJMQblsw4UYUv6+eKX3QK28YrlEFB5e+VSgdG3qYx+VdGXfNu7AcHpYXMm7bU9fLo53SfEzYA8XL8cqrjDB7evPgMjCTJsJxCMR4UqUtn8ny6n7KiyjT9eHGyXltuY4TvSOubVxnIKm4L1CdNzrGgULduU4zm4AVwG4paB2/XZBxzn+qMm/LRf0Keyb1X5LdETOg1fJto7McSAhnsCV8wu5D2sM/tqUy2M0w1q8uIpOrfYDtfidOy4cf0+qB0c9S6mHpAr22pr/d2Hvnrfe9epxT6Y6TufqEpY+faOo+YkY9/y4N3m01zUMomC+CrdvKKj0pHTlycr6cLoZHV055G7K8tXDYJ0PQxyv5TV7bbx8ZEb82uelKlB3sXiVYennJ0jUFgtrb8n6eeirsLy1MfRa1NzkbzaKnhdNG9t6Lcuxe/DBbOMiIdOVzGHOa+MCCv3ny9uHi8gpeSf3xEPundIeK+oP6FRXgLmZvtDqReGjN2Ahm1hfuvL5i0Twh1mGX6OgDKs9/yF78M47Lx6bep/Q0GjFqXTABsHqMLBvvWPBmL+/+5Lk8mSHWNo1C2OGfU3c8qdhnBGJQ4/RxZdXHg+NtxXMz+rzCP3ezMtH6u/v0VhVwK2zcNg7xS1d3NLh1wNUoy+tEzB21KTcx7pt06li5G2ZesNOPAP2l2nWVR6uL8Iyuor8WAuOe3vRs/wAfK8R7EWK3pF/m7OXihbPuB249u2bDegJ+bblij8GvyqwVcUY9tQJUJyWuaqKDXshmrtyT2enGoThVaZU6Uj7OptSBWFPz522Z+/7f3pZtuUrRlEJevZ9T3286e6Lxv40yzEAe6V0jLgiDsFmRyGCavTeeCeWrs0/jGiDvVDsyLV8RDEad23N10P7xBNjRHBd6svueKJO1qDXIQj355/k4+G9cEujso0iKWDk9jTrKg/X6rDc35jo0opdyncXOMQZea4xgagVl1uPN/bzzGM4gPxXZ8cbY06B4+bYlssAfk8vQlvsOrAiOKWTIGZqprqXYqCQ7XD2574Pe98bt8+C475Z/XRX9MaNZ7w+YcV9792XzNid9fy2t/b18s5dC+981ajsBSNsx83o3fsAnBS1yK2FuKUxgJe/MIhxXoRgW/b9SOP392i4PfmKqQ/puBJu6bTU6yoVAdRmuPUVhZSpwLj5wvL2jTPE4o8zXTg6JSAIVmFv8F95mtDqsPwGgAdaePwfFbjY9bOFL5w91NcaFw9ZDWkspaFD6GlwSzm25YpnjG6DCQutcFMIx5wfb5eURbzdmPwC15y+L28zLPB245VGpyqQbgxs1LPV4Lq7LxqVa8uzuy85afMPf/fYew0mun7CVg3tIoT+rvi1aVZ9GPEtcdGCPCY//GK9Z5lxb4QDC/ydIHtYLlk/VVx5f+qZ1W4ZqvpNBe6JJ42lEa+1LEtjX+PsVN+NUseETL1KDaFql+FD+QpNtDIsozf3vxV07+9ooqvVnxVwnG0A/qOA4xzLYzmH+soAWldIeSBasboEK2dn2uPxgKgHJqYbO2c/U2TTiqELMvdEjBt9SazMu9PIRfd3dwDmf6X9go3XQIb2i3csmPA/ec5fqOumPaJheFOqr73Qjy48Tgf25VsGtnBhqNDtmYdho9BWnABfKpnbYJxFcCuTU41URBcWQXUPSvEGFI+mDkvUP2NGZWr6BzbcvG6KwPxFtnWVJWgYPIjanm9nPn9DK8Myuppc2cLjH/BwAYH8UIt7lWgsP/l1zmN0FNSW48O2kcMhelamYcpD/abtJvd8fpUnIqdl3mkk9C0cm7vIQgc6zoSYU9P0KsVxYP1alxX5dN7zF06C5RrWfpVqODa+8LB/UMDJn8lciSl+OByUJNtay892nQHIX6Se1FOfMPsfuGra47BmY6aesQ2hgkn4vGbrFZe8P4NXmpStVxl3yZfhxrNzj7C0MizvA5D5ZmoKj+Uc3kSjMk9fyPvl1S7lCduDxUkCTMu304gCNv8kmMIFE6ZBdXqmC4GoNxr629FrCthpRC92KpVhacIy7lVa/Uy/bot1NIvn7IGRmyFim74QEYUYuQjLtw3LdW5BN4Ig46R2jZfjwzrpJ/l1qkEt/LB4lZGpZo3HvcradoS6JP6z2I0IejX1RJ/ovaN6EsKu9K/fbVsniMifZprtHs+Arf4aO0uFVGJqZVgWPVP1aLoLCOW+6AGj0dvO0wvmZtAHE3seTNZxSjR2Sg8VxjxaZLMKEepMuKUJ2XYacaCqz2Dq9Hz3YVUFgks0aD6wxXERVnu3wDrfyHXuVrLDvqt+dU3TQ4phGL1VZqMWnJzzxN1xcmReACYCkfTzFkZv/C1xvbem71W6UBt+FR+Y/kT9z7oFYbA79VByFJYiJ6HHTx+WpueP4ZZmpp7YcyDQrbkFncXUe25lWPbVhImdAPKUoXihcc+yL+xsrL2kImgUljk623EPzG4BOtrvfqXYs+C4Jvu1lTyGhZJrZver7tsxDCLnpRqCNSYK6rtyzVxttcVj9kDku01/6Ue9GrcyHCZnWFrTne+7Kg6AdGEZ1xaWG+G4HWl7lerXNkPDZS/9u/3hM4B5PnXPsj75bhhKpXQF1W/ddQIE7812wegBgf8rWJt5XeUrDlnUgQ4TfbpS197LqJozgHb20XAxGm1tccmMQaJTTbxgP0+dhqhnYXQtdHcbbsslC7IPL8dDy7mLpw/xcAqgY9Q2/5ZVtRC1/yfvuVtOw/9C4Aep3j+i5+Q852ZYzR6W8cxtHZfqMaNn/I44zhtT9yrjGcN2Ca6b1fXSv9v3tR2qNtta0Xh2djgn1WNk1xXiVU7Nts7YQmGX4wPZlywdrlVhWWvResVW6OFuHgPQiKcmQTA134a1ArXyFBbnXJZQtM5VQwRyTrbnJoANFQhz3wYJIKeLSKXZ67u4VxkEu6XktV9B+sO5zlqobX4otv6zOD3XOf0X96pgW+YZsdHjHDO66b9/S3cHRP43jJuuXKLjQoPaWvjOPx/y7zs7LYxkmwgZtV1SFFS/6bmhcGQRrJXU/Qsn7lU+hqHDC70V0KqwtAOoBzWQ2koHuN5kiDM51+zC6Gpbtf225Roz/nSoHZ/pbRldwVu7GVUvdVm5w4kNZ0iKNazx/pTQx/bV9rX/RuXvn7ZLgCeaH8aPX4MZ8WSZrPa5PlQ3Zw/LlMOwTvhOMc5FqQsQxLvVyBLcMGXnK/6blTWZyy+qNh+Wld53iPHOhE3bEZf4nativ4D3jit0dLPdNlYmao44J8MrVzIXI4g/vLZaRDm44oXz4bjDshVPj7/81+CEKbkDS8RMMm7zs/3FiQshrH/g4il9dVsjFytY1/R9PI0ngY7BlB1DM5+wc24tnhGbeU6aQKDNLR1ZunacGNxQD+YU76Po5x1UfwVP//0oTXi8+YMd/DiBGJkSTxpLsnz1MFG5sj50m/I88QzY2uPYX/tqpnYeA8OSBia18zLd+D8gLgenu7DfPlFks4pg1JwDt5y5KpFa+ziulNx7LynMiDRtqN/btLl7tH3G6tMIa00u5Yhrs3rY64/KdU4xXXkKE0B0OK5YkTwrXkrvgVs5LfVCfmuj98/NUc/7iP/dCZ6GDcL0y0csoGYsPtuVHPZ22OVwnPPTF3o/UL/W3JZlv8okDEsaoJxzc+00Ig5gsRozZ7Z6b9R0lq4tq+C0bIUWBAhqFjAF9Za1o/lLe4EGPqxx2m+bs6MR7KzPSGri72qjKIBby96zrMs+DBsHthmKuXOPXZzklicnA7g29T3verWbn2FX5egTtIJS9Jo9l/o5REGvOhY9wbEnKC1dW4bqNalKEh7guNH7/zfwUci6ysMxLGng+cymUQKdlSss442RZRUWSlHbxhXDOidAcHq24unxjMte+LaoNc6m6Y5lPKodQmwwIIZgY9a+iHQ3vQ1qtXKuc4rdGu+jmWUHj3oBjeEYPfrYYelUrhWvMiXVeyhqTxiGEHzqmOsSq+4uqHanDrPos2pkLEpuwmxe7/XiuK/Ouim1CpYd8V5rARiWNPCImQNgVPZtuaT+HSmat/xg8ax7MlTGZhpiru80sgmlYEMrmpZ4+jgAJN+uGH0p7lOmCC2FwivnG95WuwPW78205EnjbaaGoVo9+uL+JevOEEeurA8vp+DEvcr/wYRpx65mduPEfSKSLSy9igcNj75z0hUrHIgsgpNy9i4a91pD/wn4dkW6BzaPYUkDjx/Ogevl2JZLAL+2F6rtt9NICednGoJCo7esWIVFcwpZtmWAoOmvdK2fXwT5SsL1JWOGQ1NUxRKEsJJu0+nD+ZXt8Rr0THtDRi+yDkVZjtyzjGfqOh+s7/mY4mIrnuwWRgH+T82MtFjBxuwT65yjb9X12gWXisglmTaljkd59ctFrqs8HMOSBh6RufGVZJ5tuaDbUKsVUDu1YIoL4GQMy/rC74chxSyFstB9MM1+qSuM60aNmFjEufuEwaS4XGIzr1Ycbhpgn+Yb4gsRheXezMOwqsNh5cj3TUetXyCO84epl4pEvUq/+gPcu/LuJtvxZLwxdtrecTzJB0dePrJCHbG6CG65lPpzXZ8B+wTKI76U7oHpMCxpYFmxugRo/m25IF344CntNRnlU2uGC/RkpKiY8xIxQK2nBlNaXVRzDPB8mthV1eivn5SxUng/kFlwS00urRCoyh5Un843y3LvpJ2A2ZNtGNYCbtmDhq8My6hXKc6H4JYqqe7lx/cqaz0I9ZP41sLmPlRqn4JqNfVTiNoleuQqPlu7FsA4l9VDOCVjFKpLcOXoXPtVJp6mlQcnKtw6Mxwq+bflUrRflZmhHVMBTMtUaCH60rO6DbaInUbqLLDFphkSCwKIYs7rV+3Mt1FyX+hUVyCnNv336z3BLnReku+N1ylWoc9lG4aNelEO4DqvfH3HdF8mbumy1L1KtwxR+5/Y82/Nfx6cnrWApr/vGveMMe2IW3VZfT9MvMt0umM6HuDX1sD05t6vMgnDkgaWoUOmi+DEfGssow95uKrIZhUilNlwy6MzlbkzDhTajcWTuotqjkLWahAlYHNfijYMotf2lNBWTyqqDS0zYvMEiJ7Z9KxLE5drK2pNbvYi83GYyKEzSjs3VAD9CMRJ2as0QFDdaUP7qbiUXbPC0i5FlvWiCjFmOHqfPXSSzy1d88Vx3pxtBrhET/mzuPa0ltd3ZljSwCI4D8bJvhuHxGsRfZQ0WyWSlrLn5xzAfAQihZVulDB8TBU90mwvSBXieiUTur9TVBtaxgnPhnEmN31hIk70/AqaPa1dOR4bvU8OLXk3xn2nGOc1qSfGxPuO2q/g+pnpntfi2TVA16SfERvfcx0K1A69mHLsVXBLI1JfJMY1YHufguMcudpQwRiWNLAI5ufblsuJukAb0YvnimxWIUQW5OoxKx4osjkvlLu7RLAxTQ8i+qsqeMvlazXfesRWE/xR01/2cQ+stzdzqbdXHjBfz1Lw8gbQt6weLbAfTF3WznEBv7YZtf23p2+EaFwj1slQmMA4FTjyclgu3XiuCBZmmgEbr+Uxn8G1J/XJrkEMSxo4Ou9y4wkweXpfUdAaZz12b2qvbbk+v36kiJycqdBC3Fv2a1D7WJFNemT+fB/Q+8Vt/uJEgwCO486rbd1+QZFtKdStm2YK8Pqm7w3XL7C6oLWnCjm/2nxD5aovh6U79D1wvVNTL+I3DlTki/jg6RmDO1yffnBHUS/jaCc3/hx9kq9GqWN46vd9vDOK/xQC+y9pW5EVw5IGjuFTJkExPd+2XAoNwydzT9QoWtWcBuiYTMth4p62rsf+8NkWtOzuA92ZZqi1ENcboq5zdQvaUgwXf4JSx4SmZ1RLPBP2USyeU8xuKoHdidDvzVb2Lr5nWR+GXb5uiohck3r2dFwWrroRUv5ChgbUWemOZ19neQ6C6fE/l3bPFMgVqQsoIA57hcqyVq6rfMUp++pERLl5zmQY96Tsy0biHlj0zfLLgluWn9W5cMtDMvUs490+8BRqswvvLTsSrrTV6rOSYu1nWIu+Q+Vtl97//BuLbk9ut205RaDXpOqJ1Zc8fLewNpQ69kB1R6bdR+JcbGwAbb2r4VVmpCtrh8Y+ruFncM347LcivHBzvHF+2rCsX+jOaPzhanilE1LfenA8qN/7JPbja+kemA/DkgaSU+F6bvbJPfGH1Ydqu4WlwMhZmSv3WAs18ht0So4bnkf2kwsnbgDwsKRpm0a9S7cEsR99w6+ey1t4vDgr1IHjd8KrjGt6dCJ63mH4HGCaW7Df1DH9PQB2ZFuOGi+/GIp/2nAqgPelH371oEHtcYQvfDHDyV/mdURhuSv1EhgNo17pSbh57bkiZmHm2w6Qz+HDR9kZpUUYljSAOPPy7TRiolB5Bl5Pe5W563ymA2LmZSoeXb9fGUL0oVY0DfVdFP9NUw59a60GUypfEO5z/u6K1VpqVdtSea7rneJ4b081mcQpQaE/xrVTihvi3vb0i1B9PlvPUiEiw1GSfxC3NCbdLYn6xsiAfAofODff8OWVJ+5XYEv6rbrC6D07Ha53DRx3CsKUd0PiGbD+WmipT2bAHoxhSQOH6LzsxdMPlIPTR3H36e21M8Y4HQPg7KzbcinsPlR7W1Zkodd37tQweNx4KTIv+hJ1HMDIvK4Xd1ZyNeCWdbNx64a35DrG8q7zRXBLfMey2fdQXEO4pwq1XylySQ46LwlUsD3T/b56OE4TyFtSX1y5HjSsrkS1fPQtuNJQXZPhMVFkjxKRd2XdWUehX8LiScXcP06BYUkDw9K14wSYkissHTf6tD2Kb7XZtlyhf5ZAhmWb3ONEXyBPYM/JLfvyuPe3TtgFwdeb/fviuhBjrK32fqlW89+xcsGYPZlPvmTjJagM/aFx5PcyH+MzW06B6r/AKY1J1ZNx417lHdg5/Z7M5z4aNc/kmKhmIGLSvV8EsEH0gJtx48R9WU98WCvSh+VLj5XmL1peeowLDWpPo9r7z5nPmwPDkgYG9eYAGJ15GDaugekroIUuryjIgnqQZ1DfaeQhdEohO40cTU8QfMnWqhskoZ2mVAHC4NnQD99zxw9vv/Ke12TsAdxyfweWbPiQuO73pNQx20KyBe7STadLGH5bnNJpqWZdxmsrgxo0vLUV94KBsDvvrO5U3BIQhndD/e/nOOnhTche0SjLhaETz4Bd0l81nXOs7ibqQ6Inw60MyVRoGQe+/PzdULftdhoRkXPqE0nS3rOURlUU0/I6t/e/auK2S+/b+k9izHK18sovO2NgXA/Wr90FlWvvunhM9gX8S7rniAlvg1v+3ThQgnhXrPQ/+CUbLxHBl+F6M9JXtylBaz3fw86u4ib2HEK6YENt7I/VmlO8dKq4WHpNVT+N6+Zk/AAdQVWfgdb2wZihueYSNMNxoX7vepiepkc4isaeJQ0MqnMzzxbFSzPodsAprS+yWbktXTsO0FmZehnRc6pV98W7QPQB2b/369avrjLeoXWwxfUgkJr1q5/u9bf9wR0LcgTl0qd/D678X3iV340DLnpd4mC2zX/JL11bxrKuG+CY/4STIShNXDP1BQCfaNl6XGu64y2/+mJ/Fjfe9er7WDz9x8UeV3cB2Jzrc9ms+nyDL/VFDdijNqG/TkzUtBVagphzcu00Et/isetxzfi9RTYtNy1NhTjZCi3Exb11G5yeJ1vRtMP99LJZLwDmIxqGVZG4sDhMqQwNgo02qL3jjgvH/vV9rz412xZWS9eOwJKNN4nxviViZsM/KBujXosxzW26fFvXayDl74txbhYxIzPNMDYeVPVWLJ7euiVGajcDpqVD57H6iMpeSPjpQicpRXb3NMKyxTES7yxSfRq96LNqPUfCsKT2t23LcAjOTj3N/HCCh4tqUmEUp8EtdWRbbxbvW7yuL6+277hw9E9tEHzGlCvxsGtYq31Hw+D1d1484T8zH/TmJ88WKX9PypUPAigfGnAHhprl6GH5+WeGYOmm1+P2Td8QFz8W13t9XLgiywWIW4b61TtQ8m7K9mSaVOvdq9Bt2ar4pFAvlv5tXDtjZeHH7pxb0yj0W/0c4p1F7JfwVzP6tZ4z71lS+7M9cwSlMfnu7cQ73bffHpYOLsg1wxfSsvWVRz6daO37mz4m4+R0q/rQ2K5tH//WwrnZe0hLNv0JXOcfYdzJh/QmDxHvVrH/kH/1T0+OhVc+E9DzUfPfIoIL4ZZNHLSZinI3JkuF1eeg/vW4ctr+bAdpUscpNaArCpoZQIsmZ8e9ytoe2PDW1pwgfj+sy30ReyzGiS5eNqIWfrl1J2kOw5Lan3rz4BqTeUeO+pfGPohZW3TT8lEBNl2Qa3KEavE9hgT3vnnarovu737rAxdPyb5eddnmMdDw42Kc98U/oKNO3FLEtU9F/wBLN54MwSQAM0XMiVAdj9KQcvxlHf3KOvkLB+6JoUeh78d1s1s/Y3onfIzR7ngIs1ULmRwPWuv9Gq6f+ZsWnSH6cK1BGNjGfjPFH964QBAsx42ztxV/8HQYltT+BOfF9y1SzPE4RDzTNNgAOO21Ldft3ZMEMi3bEKwTXQC8gJrtlwuAXEF521OvgQ1vkVJ5XtwLbKJnLY53OcS5vNHLrN/HjH5fK6C+RBRYqlat/xEsnpF9ODmNTrFYuqk7/jm2gjHQoHcbPLk5/TqTFNRfA3F9iCkXfpZ4Z5HqBpQq/1rwkTNhWFJ761xdEpHZuY7hOID1N+DayTsLa1chzKnQcHTGNWdAEK5HYFux00hrdKrB6K6/EGP+EY476ujDrkcQD/W1YLgvnqhkVP3ax3H9jNuKP8ExaIZycc2KJ8UEn8Oi6a0t7dgj3ToULwhkfOGZHF3kBv6XcPXEfu9VghN8qO2N7ZgU71KQZwG3tdHH+LF409p2YsO5KHeUsvYsBfIkPjTrhVY0rXDL103BmO5/E9f9HERGZb6vWKToy9iYUP3q3+G66Z1934Bwa33ouODArM8e3QBby74FV7N6e3sQvQ+LXj4Sb05d3YAQXyn2wNkxLKnNmRPhuCdmn0TQqNxj0V6Tezo7TTy8nPVqPPRh1bbb7ilHdnvX74gt3SFe6Y/ii55clWsK4sSzRHs08K/HdTM/VviyimYY2YbQrxbeu4z339TluOGULcUe+Ag65/oA1hQelmKggq/iA9PbZuSEw7DU3qycAdd1ModlvfByFZD2CpaOdwyF4AIEWYpJx3U+QwT2wVY0rTBL15Yh5f8txvwlxAxJNezaSl4FGtaehuhVWDT9f/qtHX6wHV5pL0SKu99X71U+jn3SV/VTFabgnmV8r7K2AWH4+eIOmh97ltTucm/LBdUNOKHUXpN7hg6bBGBWvL9fanHPYSd6S9kr5bTask1zYUrfFtf7W6gOyVQcoGjRF7pbAvzen6AWvhnXTuu/oIy4w7ZBdV+xw7AavTdu79O9HkPdVNxwsqARvJ/D9TO3FnDAwjAsqX2pCgTn5ttpxANUfoGnP9de23LZ4HyJexRZJve40YvzS4x5LvtuHq2mchIgZ7R8wXozop64VwGs3a5+zwe1d/f/wgemZy8CXpSdE5+HyIuFDcO6JWgQPAR3/9eKOWCTjOlGGOyFKeB5OA5Q6+lCj22LGbAHa4N3MtFRLOueJMDkXD3LeAsrfRSdnS2u9JyS4EI4GfdENi4gzkpcOb8NumtHsWjqjxEECzTo/UdVuzsOq76oIXqwKKi96HpEffX3/4uqvhaLZ96MG88uZouqvDrFKvBMMR0yAawGMOaTuGZu35Z0VO0GsKuQCyPjQkW+0N/Veo6EYUntS4LZAMZk7lnGhcZ7bHxPpZ103uWKyunZehQHJiy15VZjh7p+5lZcO+0jQPAaCatfhmJbHJpRz7hVPc5402k3DklAe9Xv/S+IvB6Lpr8Hi6e14bC1dBUyfOl40LB2L3bs+UERrUplwpStgOzM/Tyin1tQ7Ya6/VoD9mg4wYfal5o58CoV+M3V0H6F+H6l3QnbPwv3j2r4lEkwmJWpMHy8I4b/AoKwvS4AjmXRrN9Y4M+xZP0cwF4hqn8EYA5KQ0rxvczodYivh7JcFEn9Ozr6Wcf3I2vR67NRjf0easHXccPMvi0HmJZqV/6DRBdQYQDVT6EzR+nBrBZKqEu71ovI2bmOIw5Ug3/G4pM2F9a2AjEsqY3Jmbnu54iB2nA7nt/f2oXZabneNBh3WtxjTrtjg3GhYbgdL7ZZb7kZ182KLlo+oZ2rbsOYsQvg77sU1lwG0bkCDInDzjjxuth46P2l4Xd9efJI9H6oFxKo/7le4q6qNtwAv/cOWHsn4N+Da6dn23S6r4W2C6WcPTKvBK32/BCV6XcU1azUxOa7B2wcaFDdhEDbagbswVoVlqXiV9omni8rr8B2JJGcr3mRY1eS83Vr7c+4c3UJ0HNyFWmOa6frE/1ytX0scUUi2YMwyDAV1o/eAw+ic0bG7nYb6Jy/H8Cd8a+vbPgY9ocnaeheiKD3LIGZBdUJceECYCQUHgQeFBaCXkD2A+FOCLbFO15Y/RWk9DB27l6Lzj6+V1cEx2yuT0LLcavBr/oQ5yZcKf14D1vWxBc7WUWvQXXvF9tpXeXhjvXFnbXKe/QVFX2Q++rKLnqX/SuAURnGcaIvnu5Mu7BnE70mX2i87mnbGj2myN5ED4Cvxl9I6dsijdesddVjho0aAfXPzLeA3QBGVxXYqmLUer6vvns/KqX0k456awba0WZl+3J4Txz66xq/vh6/EW/p7oB1hsLrGQLjOLChC/EsrO/DNTVg/94+n8TSKqLrdf/er8GoE71ZMzw++l54BIun3tOS9jUr7HlYe+WbyFQW3hr41b3wql9tRdOK0pe9P6LmLXv6NaLOnfWK4Rmvut0S1Pd/B4un/qTo5hHR4MLZsNSeVObFvYqsQVnflWMXJCxgAgURDXYMS2pT5my4OW4nRzkL3QANnimyVUQ0ODEsqf3c0t0hwOx409+sxEAVT2PxnPatckNEAwbDktqPBBOgmJlpHeIB0WMFvy6yWUQ0eDEsqf2IMxWuOzH7TNh4Vw6FDR8puGVENEgxLKn9uPoqSI6qzBIvW9uPQH9TaLuIaNBiWFL7UVyS6/EmnkS7Bnbf8bMekYj6FcOS2svydbMFek6uYgSOFyXuL9pmdwkiGvAYltRmvEvgVcbF9UHz4eQeIioMw5LaR+ddLqz9k3oB7azFCAxQ6/HjWpVERAXhriPUPsbOvEQgC/IVT49n9+yCHwy8XTmIqG2xZ0ntYcUKR0JdDKfkZd6BAQcVI7hhVlvuiUdEAxPDktrDMxdeDtd9I4Kcu2kZE/Uu74JIjsQlIjoUw5L639K1I2D0ozDGzXyvMiaAtRYa3l1g64iIGJbUDrz/X7zKeQhy7l3ruEAYrIM35NGiWkZEBIYl9bslG64Sx70eYc7hVxy4X2l/hqsnbiuiaUREB3A2LPWfWze9XVzn01GfMNekngPCmoXgG0U0jYjoYOxZUv9Y2vVuceUrEBmeq1rPAW4JqnovfOeBIppHRHQw9iypby17Ygx0aKeIuQoCN9eaygMkntgDWHwJN0zpKaKZREQHY1hS37jl/g5UJr8Zaj4sjntuHJL5S9rVGQcIgyfQE3yvmAMSER2KYUmt07m6hHFDZyF0LhWE74aa8yCO5F5LeQgBjFENcCs+NOuFAg9MRPQShiWls7TrDRD7Plg8CCMPIAx3wEUvrOsCdgRgx0FlJkTOEDFnwNqzUfJOgHUAG/Umcy4POZxbgtaqD6Ba/vdiD0xE9DKGJaUj+kfSMfJtqO57G2wYwnFCKBRQidduiGNgjIHr1f9+6AN+tUVtMUBYqwHhR3HjRG7HRUQtw7Ck5n1+/Uip4mLU9qM+g1UcCJz4v8lBG4WobV1AHsz1oH7vF7B45k9afzIiGswYltS8mjMPItNeXuqh+arT5eGWoX71PgT6t/3UAiIaRLjOkpqnuBjljlIhBQTycD0gqD2LMHw/PjBjd/82hogGA4YlNadzdQnAm4qdyZqB4wI2fFEV78b1M3/dv40hosGCYUnNGTFsjgjOKaTaTlaOB6i+qKrvw+KpvE9JRH2GYUnN8eRyOF6l34Zg43J2doda+8e4dirrvxJRn2JYUrIV6gj0t2H6Yz6YxJN5EPhdCKrvwKKprNJDRH2OYUnJtm04CcD8eM1kXzJOfXmI9X+oYfAGXDfrjr5tABFRHcOSklkzD25pYp/drxQBvAqgdpeG1b9CtfttuH7mk31zciKiV+I6S2rGm/rkLGLqk3hCP9Cg9l3U/E/ihlmr+uTcRETHwJ4lHdvn148UkYtbN7FH6sOtpY7oD3s18H+ggf1d7PjyQgYlEbUL9izp2GrmXAAnv1Tr1Yb1cnZ5GAMYr14iL/Ct2nADqvu/A+h3sHjGg4W0m4ioQAxLOjbfXaue/bBU910AlVMgmAmnNASwiHubcY/zQNm7I/U+pR6KIvWBjOifob8TtvaEqn0UkB8DtZ9h8Zw9ff/kiIiaI/3dABpAlm0eAxtOQKgzIDgbJgpPnQbIBEBHQzFSRMr1vyxQtTXA7IHoZgBroXgMCO6HYhN27dqCzvn7+/spERERERFRATjBh4iIKAHDkoiIKAHDkoiIKAHDkoiIKAHDkoiIKAHDkoiIKAHDkoiIKAHDkoiIKAHDkoiIKAHDkoiIKAHDkoiIKAHDkoiIKAHDkoiIKAHDkoiIKAHDkoiIKAHDkoiIKAHDkoiIKAHDkoiIKAHDkoiIKAHDkoiIKAHDkoiIKAHDkoiIKAHDkoiIKAHDkoiIKAHDkoiIKAHDkoiIKAHDkoiIKAHDkoiIKAHDkoiIKAHDkoiIKAHDkoiIKAHDkoiIKAHDkoiIKAHDkoiIKAHDkoiIKAHDkoiIKAHDkoiIKAHDkoiIKAHDkoiIKAHDkoiIKAHDkoiIKAHDkoiIKAHDkoiIKAHDkoiIKAHDkoiIKAHDkoiIKAHDkoiIKAHDkoiIKAHDkoiIKAHDkoiIKAHDkoiIKAHDkoiIKAHDkoiIKAHDkoiIKAHDkoiIKAHDkoiIKAHDkoiIKAHDkoiIKAHDkoiIKAHDkoiIKAHDkoiIKAHDkoiIKAHDkoiIKAHDkoiIKAHDkoiIKAHDkoiIKAHDkoiIKAHDkoiIKAHDkoiIKAHDkoiIKAHDkoiIKAHDkoiIKAHDkoiIKAHDkoiIKAHDkoiIKAHDkoiIKAHDkoiIKAHDkoiIKAHDkoiIKAHDkoiIKAHDkoiIKAHDkoiIKAHDkoiIKAHDkoiIKAHDkoiIKAHDkoiIKAHDkoiIKAHDkoiIKAHDkoiIKAHDkoiIKAHDkoiIKAHDkoiIKAHDkoiIKAHDkoiIKAHDkoiIKAHDkoiIKAHDkoiIKAHDkoiIKAHDkoiIKAHDkoiIKAHDkoiIKAHDkoiIKAHDkoiIKAHDkoiIKAHDkoiIKAHDkoiIKAHDkoiIKAHDkoiIKAHDkoiIKAHDkoiIKAHDkoiIKAHDkoiIKAHDkoiIKAHDkoiIKAHDkoiIKAHDkoiIKAHDkoiIKAHDkoiIKAHDkoiIKAHDkoiIKAHDkoiIKAHDkoiIKAHDkoiIKAHDkoiIKAHDkoiIKAHDkoiIKAHDkoiIKAHDkoiIKAHDkoiIKAHDkoiIKAHDkoiIKAHDkoiIKAHDkoiIKAHDkoiIKAHDkoiIKAHDkoiIKAHDkoiIKAHDkoiIKAHDkoiIKAHDkoiIKAHDkoiIKAHDkoiIKAHDkoiIKMH/CwAA//+3IcdaT7RajwAAAABJRU5ErkJggg==;" vertex="1" parent="Wyes8RcjERkSvGoP2RtP-15">
          <mxGeometry x="4" width="50" height="50" as="geometry" />
        </mxCell>
        <mxCell id="Wyes8RcjERkSvGoP2RtP-16" value="" style="group" vertex="1" connectable="0" parent="Wyes8RcjERkSvGoP2RtP-19">
          <mxGeometry x="77.5" y="160" width="135" height="80" as="geometry" />
        </mxCell>
        <mxCell id="Wyes8RcjERkSvGoP2RtP-12" value="Server" style="rounded=0;whiteSpace=wrap;html=1;" vertex="1" parent="Wyes8RcjERkSvGoP2RtP-16">
          <mxGeometry width="135" height="80" as="geometry" />
        </mxCell>
        <mxCell id="Wyes8RcjERkSvGoP2RtP-14" value="" style="shape=image;verticalLabelPosition=bottom;labelBackgroundColor=default;verticalAlign=top;aspect=fixed;imageAspect=0;image=https://fastapi.tiangolo.com/img/logo-margin/logo-teal.png;" vertex="1" parent="Wyes8RcjERkSvGoP2RtP-16">
          <mxGeometry width="72.15" height="26" as="geometry" />
        </mxCell>
        <mxCell id="Wyes8RcjERkSvGoP2RtP-17" style="edgeStyle=orthogonalEdgeStyle;rounded=0;orthogonalLoop=1;jettySize=auto;html=1;entryX=0;entryY=0.5;entryDx=0;entryDy=0;" edge="1" parent="1" source="Wyes8RcjERkSvGoP2RtP-3" target="Wyes8RcjERkSvGoP2RtP-9">
          <mxGeometry relative="1" as="geometry" />
        </mxCell>
        <mxCell id="Wyes8RcjERkSvGoP2RtP-50" value="Port-A" style="edgeLabel;html=1;align=center;verticalAlign=middle;resizable=0;points=[];" vertex="1" connectable="0" parent="Wyes8RcjERkSvGoP2RtP-17">
          <mxGeometry x="0.586" y="1" relative="1" as="geometry">
            <mxPoint as="offset" />
          </mxGeometry>
        </mxCell>
        <mxCell id="Wyes8RcjERkSvGoP2RtP-18" style="edgeStyle=orthogonalEdgeStyle;rounded=0;orthogonalLoop=1;jettySize=auto;html=1;entryX=0;entryY=0.5;entryDx=0;entryDy=0;" edge="1" parent="1" source="Wyes8RcjERkSvGoP2RtP-3" target="Wyes8RcjERkSvGoP2RtP-12">
          <mxGeometry relative="1" as="geometry" />
        </mxCell>
        <mxCell id="Wyes8RcjERkSvGoP2RtP-51" value="Port-B" style="edgeLabel;html=1;align=center;verticalAlign=middle;resizable=0;points=[];" vertex="1" connectable="0" parent="Wyes8RcjERkSvGoP2RtP-18">
          <mxGeometry x="0.5123" y="-1" relative="1" as="geometry">
            <mxPoint x="7" y="-1" as="offset" />
          </mxGeometry>
        </mxCell>
        <mxCell id="Wyes8RcjERkSvGoP2RtP-3" value="" style="strokeColor=#dddddd;shadow=1;strokeWidth=1;rounded=1;absoluteArcSize=1;arcSize=2;direction=south;" vertex="1" parent="1">
          <mxGeometry x="120" y="400" width="70" height="150" as="geometry" />
        </mxCell>
        <mxCell id="Wyes8RcjERkSvGoP2RtP-4" value="" style="editableCssRules=.*;html=1;fontColor=#999999;shape=image;verticalLabelPosition=middle;verticalAlign=middle;labelPosition=right;align=left;spacingLeft=20;part=1;points=[];imageAspect=0;image=data:image/svg+xml,PHN2ZyB4bWxucz0iaHR0cDovL3d3dy53My5vcmcvMjAwMC9zdmciIHhtbG5zOnY9Imh0dHBzOi8vdmVjdGEuaW8vbmFubyIgd2lkdGg9IjE5Ljk5OTk5ODA5MjY1MTM2NyIgaGVpZ2h0PSIyMCIgdmlld0JveD0iMCAtMi44NDIxNzA1NjE4NzU1NzQ1ZS0xNSAxOS45OTk5OTgwOTI2NTEzNjcgMjAiPiYjeGE7CTxzdHlsZSB0eXBlPSJ0ZXh0L2NzcyI+JiN4YTsJLnN0MHtmaWxsOiM0Mjg1ZjQ7fSYjeGE7CS5zdDF7ZmlsbDojNjY5ZGY2O30mI3hhOwk8L3N0eWxlPiYjeGE7CTxwYXRoIGNsYXNzPSJzdDEiIGQ9Ik0xNS40OSAxMC40djYuN2EuNC40IDAgMCAxLS40LjRIMi45YS40LjQgMCAwIDEtLjQtLjRWNC45YS40LjQgMCAwIDEgLjQtLjRoNi43YS40LjQgMCAwIDAgLjQtLjRWMi40YS40LjQgMCAwIDAtLjQtLjRILjRhLjQuNCAwIDAgMC0uNC40djE3LjJhLjQuNCAwIDAgMCAuNC40aDE3LjJhLjQuNCAwIDAgMCAuNC0uNHYtOS4yYS40LjQgMCAwIDAtLjQtLjRoLTEuNzFhLjQuNCAwIDAgMC0uNC40eiIvPiYjeGE7CTxwYXRoIGNsYXNzPSJzdDAiIGQ9Ik0xMiAuNHY3LjJhLjQuNCAwIDAgMCAuNC40aDcuMmEuNC40IDAgMCAwIC40LS40Vi40YS40LjQgMCAwIDAtLjQtLjRoLTcuMmEuNC40IDAgMCAwLS40LjR6bTUuNiA0LjFoLTEuNzFhLjQuNCAwIDAgMS0uNC0uNFYyLjRhLjQuNCAwIDAgMSAuNC0uNGgxLjcxYS40LjQgMCAwIDEgLjQuNHYxLjdhLjQuNCAwIDAgMS0uNC40eiIvPiYjeGE7PC9zdmc+;" vertex="1" parent="Wyes8RcjERkSvGoP2RtP-3">
          <mxGeometry width="30" height="30" relative="1" as="geometry">
            <mxPoint x="15" y="15" as="offset" />
          </mxGeometry>
        </mxCell>
        <mxCell id="Wyes8RcjERkSvGoP2RtP-5" value="Exposed IPs" style="text;html=1;align=center;verticalAlign=middle;whiteSpace=wrap;rounded=0;rotation=270;" vertex="1" parent="Wyes8RcjERkSvGoP2RtP-3">
          <mxGeometry x="-5" y="80" width="80" height="30" as="geometry" />
        </mxCell>
        <mxCell id="Wyes8RcjERkSvGoP2RtP-22" value="Azure Storage Account" style="image;aspect=fixed;html=1;points=[];align=center;fontSize=12;image=img/lib/azure2/storage/Storage_Accounts.svg;" vertex="1" parent="1">
          <mxGeometry x="660" y="360" width="65" height="52" as="geometry" />
        </mxCell>
        <mxCell id="Wyes8RcjERkSvGoP2RtP-23" style="edgeStyle=orthogonalEdgeStyle;rounded=0;orthogonalLoop=1;jettySize=auto;html=1;entryX=0;entryY=0.5;entryDx=0;entryDy=0;entryPerimeter=0;" edge="1" parent="1" source="Wyes8RcjERkSvGoP2RtP-8" target="Wyes8RcjERkSvGoP2RtP-22">
          <mxGeometry relative="1" as="geometry" />
        </mxCell>
        <mxCell id="Wyes8RcjERkSvGoP2RtP-43" style="edgeStyle=orthogonalEdgeStyle;rounded=0;orthogonalLoop=1;jettySize=auto;html=1;" edge="1" parent="1" source="Wyes8RcjERkSvGoP2RtP-25">
          <mxGeometry relative="1" as="geometry">
            <mxPoint x="120" y="740" as="targetPoint" />
          </mxGeometry>
        </mxCell>
        <mxCell id="Wyes8RcjERkSvGoP2RtP-25" value="Github Versioning" style="dashed=0;outlineConnect=0;html=1;align=center;labelPosition=center;verticalLabelPosition=bottom;verticalAlign=top;shape=mxgraph.weblogos.github" vertex="1" parent="1">
          <mxGeometry x="36.25" y="720" width="37.5" height="40" as="geometry" />
        </mxCell>
        <mxCell id="Wyes8RcjERkSvGoP2RtP-34" value="Docker Hub" style="image;sketch=0;aspect=fixed;html=1;points=[];align=center;fontSize=12;image=img/lib/mscae/Docker.svg;" vertex="1" parent="1">
          <mxGeometry x="452.5" y="720" width="50" height="41" as="geometry" />
        </mxCell>
        <mxCell id="Wyes8RcjERkSvGoP2RtP-36" style="edgeStyle=orthogonalEdgeStyle;rounded=0;orthogonalLoop=1;jettySize=auto;html=1;entryX=0.52;entryY=0.024;entryDx=0;entryDy=0;entryPerimeter=0;" edge="1" parent="1" source="Wyes8RcjERkSvGoP2RtP-12" target="Wyes8RcjERkSvGoP2RtP-34">
          <mxGeometry relative="1" as="geometry" />
        </mxCell>
        <mxCell id="Wyes8RcjERkSvGoP2RtP-37" value="Azure Kubernetes Services" style="image;aspect=fixed;html=1;points=[];align=center;fontSize=12;image=img/lib/azure2/compute/Kubernetes_Services.svg;direction=east;" vertex="1" parent="1">
          <mxGeometry x="670" y="620" width="45.33" height="40" as="geometry" />
        </mxCell>
        <mxCell id="Wyes8RcjERkSvGoP2RtP-42" value="" style="group" vertex="1" connectable="0" parent="1">
          <mxGeometry x="120" y="700.5" width="153" height="80" as="geometry" />
        </mxCell>
        <mxCell id="Wyes8RcjERkSvGoP2RtP-39" value="" style="rounded=0;whiteSpace=wrap;html=1;" vertex="1" parent="Wyes8RcjERkSvGoP2RtP-42">
          <mxGeometry x="10" width="143" height="80" as="geometry" />
        </mxCell>
        <mxCell id="Wyes8RcjERkSvGoP2RtP-28" value="Github Actions" style="shape=image;verticalLabelPosition=bottom;labelBackgroundColor=default;verticalAlign=top;aspect=fixed;imageAspect=0;image=https://thesecurityvault.com/securing-github-actions/images/banner.png;" vertex="1" parent="Wyes8RcjERkSvGoP2RtP-42">
          <mxGeometry x="51.5" y="20" width="60" height="30" as="geometry" />
        </mxCell>
        <mxCell id="Wyes8RcjERkSvGoP2RtP-41" value="CI/CD" style="text;html=1;align=center;verticalAlign=middle;whiteSpace=wrap;rounded=0;" vertex="1" parent="Wyes8RcjERkSvGoP2RtP-42">
          <mxGeometry width="60" height="30" as="geometry" />
        </mxCell>
        <mxCell id="Wyes8RcjERkSvGoP2RtP-44" style="edgeStyle=orthogonalEdgeStyle;rounded=0;orthogonalLoop=1;jettySize=auto;html=1;" edge="1" parent="1" source="Wyes8RcjERkSvGoP2RtP-39" target="Wyes8RcjERkSvGoP2RtP-34">
          <mxGeometry relative="1" as="geometry" />
        </mxCell>
        <mxCell id="Wyes8RcjERkSvGoP2RtP-45" style="edgeStyle=orthogonalEdgeStyle;rounded=0;orthogonalLoop=1;jettySize=auto;html=1;entryX=1.01;entryY=0.512;entryDx=0;entryDy=0;entryPerimeter=0;" edge="1" parent="1" source="Wyes8RcjERkSvGoP2RtP-37" target="Wyes8RcjERkSvGoP2RtP-34">
          <mxGeometry relative="1" as="geometry" />
        </mxCell>
        <mxCell id="Wyes8RcjERkSvGoP2RtP-48" value="Azure Cloud" style="verticalLabelPosition=bottom;html=1;verticalAlign=top;align=center;strokeColor=none;fillColor=#00BEF2;shape=mxgraph.azure.azure_subscription;" vertex="1" parent="1">
          <mxGeometry x="230" y="269" width="36" height="28" as="geometry" />
        </mxCell>
        <mxCell id="Wyes8RcjERkSvGoP2RtP-53" style="edgeStyle=orthogonalEdgeStyle;rounded=0;orthogonalLoop=1;jettySize=auto;html=1;" edge="1" parent="1" target="Wyes8RcjERkSvGoP2RtP-37">
          <mxGeometry relative="1" as="geometry">
            <mxPoint x="200" y="780" as="sourcePoint" />
            <mxPoint x="687.3499999999998" y="740" as="targetPoint" />
            <Array as="points">
              <mxPoint x="200" y="840" />
              <mxPoint x="693" y="840" />
            </Array>
          </mxGeometry>
        </mxCell>
      </root>
    </mxGraphModel>
  </diagram>
</mxfile>
